<svg width="99" height="147" viewBox="0 0 99 147" fill="none" xmlns="http://www.w3.org/2000/svg"><path d="M71.7835 108.509C70.6444 109.228 69.4863 109.896 68.3092 110.513C62.0218 113.747 55.0149 115.339 47.943 115.141C40.8711 114.942 33.9651 112.959 27.8703 109.378C27.5195 111.671 27.506 114.003 27.8305 116.3C27.8842 116.686 28.0365 117.052 28.2729 117.362C28.5093 117.672 28.8218 117.917 29.1803 118.072C35.2403 120.764 41.7851 122.203 48.4187 122.3C55.0523 122.398 61.6368 121.152 67.7738 118.64C69.9866 117.732 72.1284 116.662 74.1813 115.437C80.5833 111.647 86.0356 106.454 90.1247 100.251C94.2137 94.0475 96.8321 86.9972 97.7812 79.6346C98.7303 72.2721 97.9853 64.7907 95.6025 57.7581C93.2197 50.7254 89.2618 44.3262 84.029 39.0458C83.9721 39.3808 83.9094 39.7159 83.8411 40.0453C83.4616 41.9095 82.9321 43.7401 82.2577 45.5196C82.0786 46.0027 82.0249 46.523 82.1016 47.0324C82.1783 47.5417 82.3828 48.0234 82.6963 48.4328C88.6785 56.4259 91.5898 66.2918 90.9022 76.2415C90.2147 86.1911 85.9738 95.5657 78.9486 102.665C74.7794 92.892 65.8487 84.4533 57.7552 76.7643L55.1694 74.3053C55.0438 74.1841 54.944 74.0389 54.8758 73.8785C54.8076 73.718 54.7725 73.5455 54.7725 73.3712C54.7725 73.1969 54.8076 73.0244 54.8758 72.8639C54.944 72.7035 55.0438 72.5583 55.1694 72.437L57.7552 69.9838C59.1449 68.6663 60.5631 67.3205 61.9756 65.9576C67.7966 60.3469 73.4922 54.3104 77.1886 47.6662C77.8397 46.5053 78.429 45.3111 78.9543 44.0885C80.0284 41.6055 80.7584 38.9881 81.1243 36.3086C81.2797 35.1623 81.3577 34.0069 81.3578 32.8502C81.3578 32.4357 81.3578 32.0268 81.3293 31.6122C81.0382 23.7533 77.8597 16.2752 72.3986 10.6007C72.1049 10.2968 71.8742 9.938 71.7197 9.54497C71.5653 9.15195 71.4901 8.73239 71.4986 8.31036C71.5071 7.88834 71.599 7.47212 71.7691 7.08556C71.9391 6.69901 72.184 6.34972 72.4897 6.0577L76.6191 2.16775C76.7235 2.07129 76.7986 1.94742 76.8356 1.81037C76.8727 1.67331 76.8703 1.52863 76.8287 1.39288C76.7871 1.25713 76.7079 1.13583 76.6003 1.04288C76.4928 0.949919 76.3611 0.889075 76.2204 0.867321L72.2847 0.236949C71.3881 0.0935937 70.4704 0.159503 69.6037 0.429489C68.737 0.699474 67.9449 1.16617 67.2896 1.79293L64.4418 4.53579C59.6183 1.93334 54.2091 0.599744 48.725 0.660917C43.2409 0.722091 37.8629 2.17602 33.099 4.88542C28.3351 7.59481 24.3425 11.4702 21.4983 16.1457C18.6541 20.8211 17.0521 26.1423 16.8437 31.6066C16.7879 33.1888 16.8393 34.773 16.9974 36.3484C16.014 37.2002 15.0647 38.088 14.1496 39.0117C9.50524 43.6955 5.85905 49.2675 3.43042 55.3927C1.00178 61.5178 -0.159131 68.0695 0.0175174 74.6535C0.194166 81.2376 1.70473 87.718 4.45833 93.705C7.21193 99.6919 11.1517 105.062 16.0406 109.491C16.323 109.749 16.545 110.066 16.6907 110.42C16.8364 110.773 16.9022 111.154 16.8835 111.535C16.8436 112.348 16.8266 113.16 16.8209 113.994V114.437C16.7982 118.632 17.6272 122.788 19.2579 126.654C20.8887 130.521 23.2874 134.019 26.3097 136.937C30.8003 141.253 36.4418 144.19 42.5607 145.396C48.6797 146.603 55.0177 146.028 60.8181 143.741C66.6184 141.454 71.6361 137.551 75.2722 132.498C78.9082 127.445 81.0089 121.455 81.3236 115.244C79.1114 116.886 76.7727 118.352 74.3294 119.628C74.0449 119.774 73.7926 119.975 73.5872 120.22C73.3818 120.465 73.2275 120.748 73.1333 121.053C71.575 126.207 68.3952 130.724 64.0639 133.937C59.7325 137.15 54.4795 138.889 49.0808 138.896C36.6302 138.896 26.566 130.508 24.4017 119.088C24.1698 117.872 24.0308 116.64 23.9859 115.403C23.9859 115.09 23.9859 114.772 23.9859 114.449C23.9828 112.013 24.1484 109.581 24.4815 107.169C25.9737 96.3788 30.6669 88.4285 35.0924 81.3187C35.8673 80.1472 36.1798 78.7311 35.9695 77.3435C35.7189 75.6399 34.7336 73.533 32.2731 71.1934C32.1882 71.1133 32.0836 71.057 31.9698 71.0304C31.8561 71.0037 31.7373 71.0076 31.6255 71.0417C31.5138 71.0757 31.4131 71.1387 31.3337 71.2242C31.2544 71.3097 31.1992 71.4147 31.1738 71.5284C29.9777 77.0198 20.523 91.0578 18.1935 101.615C11.3978 94.2406 7.49026 84.6747 7.1849 74.6651C6.87954 64.6555 10.1968 54.8705 16.5304 47.0983C17.3733 46.0591 18.2675 45.0653 19.2016 44.1112C20.981 42.3077 22.9197 40.6675 24.9941 39.2105C25.9452 38.5404 26.9306 37.91 27.933 37.3251C34.3469 33.5804 41.6454 31.6066 49.0779 31.6066C56.5105 31.6066 63.809 33.5804 70.2229 37.3251C70.681 35.0484 70.7714 32.7134 70.4906 30.4083C70.4464 30.0628 70.3136 29.7344 70.1051 29.4549C69.8966 29.1754 69.6194 28.9542 69.3002 28.8126C62.7735 25.8671 55.6788 24.3834 48.5151 24.4659C41.3515 24.5483 34.2929 26.1948 27.8362 29.2896C27.2097 29.5906 26.5888 29.9086 25.9737 30.238C25.9737 30.238 23.8208 30.1358 24.8346 26.4729C26.3641 20.7261 29.8948 15.7096 34.7949 12.321C39.695 8.93252 45.6446 7.39323 51.5789 7.97863C57.5133 8.56402 63.045 11.2359 67.1841 15.5161C71.3232 19.7963 73.7996 25.4054 74.17 31.3397C74.2041 31.8583 74.2212 32.3808 74.2212 32.907C74.2082 35.0488 73.8604 37.1755 73.1903 39.2105C72.804 40.3765 72.3338 41.5134 71.7835 42.612C67.9959 50.4374 60.3239 57.7063 52.8285 64.8047C51.9343 65.6509 51.023 66.5084 50.1174 67.3829C49.84 67.6458 49.472 67.7923 49.0893 67.7923C48.7067 67.7923 48.3386 67.6458 48.0613 67.3829C47.1557 66.514 46.2501 65.6509 45.3502 64.8047C37.8547 57.7063 30.1828 50.4374 26.3952 42.612C24.8053 43.8171 23.314 45.1464 21.9355 46.5872C21.6509 46.8867 21.4724 47.2708 21.4272 47.6809C21.3819 48.0911 21.4724 48.5047 21.6849 48.8587C25.3928 55.0372 30.7637 60.6706 36.1973 65.9405C37.6098 67.3034 39.0451 68.6436 40.4178 69.9611C42.5764 72.0055 49.115 78.3714 49.115 78.3714C50.3452 79.5639 51.5982 80.7508 52.8285 81.9206C60.8935 89.5586 69.1692 97.401 72.5809 105.919C72.7722 106.376 72.7973 106.885 72.6516 107.358C72.506 107.831 72.1988 108.238 71.7835 108.509Z" fill="#fff"/></svg>