<svg width="326" height="121" viewBox="0 0 326 121" fill="none" xmlns="http://www.w3.org/2000/svg"><g clip-path="url(#clip0_0_155)" fill="#fff"><path d="M12.8337 120.994C10.2939 120.994 7.81124 120.24 5.69961 118.827C3.58797 117.414 1.94226 115.405 0.970628 113.056C-0.00100734 110.706 -0.254923 108.121 0.241006 105.627C0.736934 103.132 1.96043 100.842 3.75673 99.0438C5.55303 97.246 7.84145 96.022 10.3325 95.5266C12.8236 95.0312 15.4055 95.2867 17.7516 96.2607C20.0976 97.2348 22.1025 98.8836 23.5126 100.999C24.9227 103.114 25.6748 105.6 25.6735 108.143C25.6703 111.552 24.3162 114.819 21.9088 117.229C19.5014 119.638 16.2375 120.992 12.8337 120.994ZM12.8337 98.32C10.8934 98.32 8.99665 98.8961 7.38335 99.9755C5.77004 101.055 4.51262 102.589 3.7701 104.384C3.02757 106.179 2.8333 108.154 3.21183 110.06C3.59037 111.965 4.52471 113.716 5.89672 115.089C7.26872 116.463 9.01676 117.399 10.9198 117.778C12.8228 118.157 14.7953 117.962 16.5879 117.219C18.3806 116.475 19.9127 115.216 20.9907 113.601C22.0687 111.985 22.644 110.086 22.644 108.143C22.6424 105.538 21.6083 103.041 19.7689 101.199C17.9294 99.3571 15.4351 98.3216 12.8337 98.32Z"/><path d="M46.3493 120.851C44.2231 120.851 42.1307 120.318 40.2622 119.303C38.3936 118.287 36.808 116.82 35.6494 115.034C34.4908 113.249 33.7958 111.203 33.6276 109.08C33.4593 106.958 33.8231 104.827 34.686 102.881C35.5488 100.936 36.8834 99.2363 38.5685 97.938C40.2536 96.6397 42.2359 95.7834 44.3353 95.4469C46.4348 95.1103 48.585 95.3042 50.5906 96.0108C52.5963 96.7175 54.3939 97.9146 55.8203 99.4935L53.5744 101.526C52.2545 100.063 50.5228 99.0349 48.6077 98.5771C46.6926 98.1192 44.6838 98.2531 42.8462 98.9612C41.0086 99.6693 39.4284 100.918 38.3138 102.544C37.1992 104.169 36.6026 106.094 36.6026 108.066C36.6026 110.037 37.1992 111.963 38.3138 113.588C39.4284 115.213 41.0086 116.462 42.8462 117.17C44.6838 117.878 46.6926 118.012 48.6077 117.554C50.5228 117.097 52.2545 116.068 53.5744 114.605L55.8203 116.644C54.6221 117.968 53.1604 119.027 51.5293 119.751C49.8982 120.476 48.1337 120.851 46.3493 120.851Z"/><path d="M85.1712 99.0737V96.0464H64.3843V120.246H85.1712V117.213H67.4138V109.509H80.8275V106.481H67.4138V99.0737H85.1712Z"/><path d="M326 99.0737V96.0464H305.213V120.246H326V117.213H308.243V109.509H321.656V106.481H308.243V99.0737H326Z"/><path d="M234.295 120.246H215.186V96.0337H218.216V117.213H234.295V120.246Z"/><path d="M150.629 120.666L131.465 101.977V120.234H128.435V94.792L147.6 113.481V95.3789H150.629V120.666Z"/><path d="M95.6109 120.234L98.844 114.606H114.541L117.774 120.234H121.266L106.692 94.854L92.1187 120.234H95.6109ZM106.717 100.933L112.825 111.578H100.609L106.717 100.933Z"/><path d="M266.94 120.234H270.42L255.841 94.4956L241.255 120.246H244.734L247.924 114.618H263.751L266.94 120.234ZM249.664 111.584L255.865 100.637L262.035 111.584H249.664Z"/><path d="M206.307 109.163H196.621V112.19H203.58V112.585C203.579 112.68 203.556 112.773 203.512 112.857C202.657 114.443 201.38 115.76 199.823 116.663C198.265 117.566 196.488 118.019 194.689 117.973C193.072 117.911 191.496 117.45 190.1 116.631C188.704 115.811 187.532 114.659 186.689 113.276C185.845 111.893 185.357 110.323 185.266 108.705C185.176 107.087 185.487 105.472 186.171 104.004C186.855 102.535 187.891 101.259 189.187 100.289C190.483 99.3187 191.999 98.6846 193.599 98.443C195.199 98.2015 196.834 98.36 198.358 98.9044C199.882 99.4489 201.248 100.362 202.334 101.564L204.58 99.5309C202.838 97.6035 200.554 96.2501 198.028 95.6491C195.502 95.0481 192.854 95.2279 190.433 96.1646C188.011 97.1013 185.93 98.751 184.464 100.896C182.997 103.041 182.215 105.581 182.22 108.18C182.202 110.477 182.804 112.735 183.962 114.717C185.12 116.7 186.791 118.332 188.799 119.442C190.807 120.552 193.077 121.098 195.369 121.023C197.661 120.949 199.891 120.255 201.822 119.017C203.768 117.772 205.345 116.027 206.388 113.963C206.465 113.789 206.515 113.603 206.536 113.413L206.616 109.49C206.623 109.447 206.62 109.403 206.607 109.362C206.594 109.32 206.572 109.282 206.542 109.25C206.512 109.219 206.476 109.194 206.435 109.179C206.394 109.164 206.351 109.158 206.307 109.163Z"/><path d="M13.0064 94.5018L16.184 90.4798L14.6415 88.5337H13.0249H12.9879H11.3714L9.82886 90.4798L13.0064 94.5018Z"/><path d="M296.032 120.234H276.27L290.633 99.0737H276.64V96.0464H296.353L281.989 117.207H296.032V120.234Z"/><path d="M175.519 55.573C174.945 55.9437 174.353 56.2896 173.742 56.6047C170.528 58.2683 166.944 59.0882 163.327 58.9877C159.71 58.8873 156.178 57.8697 153.06 56.0302C152.967 56.6436 152.922 57.2632 152.924 57.8836C152.923 58.4541 152.962 59.024 153.042 59.5888C153.07 59.7873 153.149 59.9753 153.269 60.1352C153.39 60.2951 153.55 60.4217 153.733 60.5032C159.071 62.8815 165.072 63.3186 170.698 61.7392C176.324 60.1598 181.223 56.663 184.549 51.8524C187.875 47.0418 189.419 41.2193 188.915 35.3902C188.411 29.5611 185.89 24.0912 181.788 19.9248L181.695 20.4376C181.5 21.3951 181.228 22.3352 180.881 23.2487C180.79 23.4969 180.763 23.7642 180.803 24.0256C180.843 24.287 180.948 24.534 181.109 24.7438C184.168 28.8467 185.656 33.9117 185.304 39.0195C184.952 44.1273 182.783 48.9395 179.19 52.5827C177.062 47.566 172.508 43.2351 168.356 39.2873L167.035 38.0516C166.971 37.9889 166.92 37.9139 166.885 37.8312C166.85 37.7484 166.832 37.6595 166.832 37.5697C166.832 37.4799 166.85 37.391 166.885 37.3083C166.92 37.2255 166.971 37.1506 167.035 37.0878L168.356 35.8522C169.071 35.1726 169.791 34.4827 170.515 33.7825C173.477 30.9034 176.401 27.802 178.289 24.3855C178.627 23.7855 178.93 23.1666 179.196 22.532C179.744 21.2626 180.116 19.9238 180.301 18.5532C180.382 17.9657 180.424 17.3733 180.424 16.7801C180.424 16.5639 180.424 16.3538 180.424 16.1623C180.275 12.1324 178.652 8.29788 175.865 5.3875C175.713 5.23133 175.594 5.04668 175.514 4.8442C175.434 4.64171 175.395 4.42538 175.399 4.20771C175.403 3.99004 175.45 3.77533 175.537 3.57594C175.625 3.37655 175.751 3.19641 175.908 3.04594L178.018 1.0504C178.071 1.00062 178.108 0.93708 178.127 0.866945C178.145 0.79681 178.144 0.722866 178.123 0.653476C178.102 0.584086 178.062 0.522013 178.007 0.474246C177.953 0.426479 177.886 0.394915 177.814 0.383142L175.803 0.0619014C175.345 -0.0128214 174.875 0.0202587 174.432 0.158587C173.988 0.296915 173.583 0.536681 173.248 0.858875L171.786 2.26748C169.38 0.957068 166.683 0.273022 163.944 0.278123C159.68 0.28275 155.582 1.93862 152.51 4.89921C149.437 7.85981 147.627 11.8957 147.458 16.1623C147.429 16.9744 147.454 17.7876 147.532 18.5965C147.032 19.0351 146.545 19.4923 146.082 19.9619C143.708 22.367 141.845 25.2278 140.604 28.3723C139.363 31.5168 138.769 34.8801 138.859 38.2602C138.949 41.6402 139.72 44.9671 141.127 48.041C142.534 51.115 144.546 53.8724 147.044 56.1476C147.189 56.2785 147.303 56.4402 147.378 56.6208C147.453 56.8014 147.486 56.9964 147.476 57.1917C147.476 57.6118 147.445 58.0257 147.445 58.4273V58.6621C147.434 60.8158 147.858 62.9495 148.691 64.9349C149.525 66.9204 150.75 68.7165 152.295 70.2153C154.59 72.4315 157.473 73.9399 160.6 74.5605C163.727 75.1812 166.967 74.8878 169.932 73.7154C172.898 72.5431 175.463 70.5413 177.324 67.9488C179.184 65.3563 180.26 62.2827 180.424 59.0946C179.292 59.9385 178.095 60.6925 176.846 61.3496C176.7 61.424 176.57 61.5268 176.464 61.652C176.358 61.7771 176.278 61.9222 176.229 62.0786C175.432 64.7247 173.806 67.0439 171.592 68.6938C169.377 70.3436 166.692 71.2366 163.932 71.2409C160.636 71.3343 157.438 70.1185 155.035 67.8591C152.632 65.5997 151.219 62.48 151.104 59.1811C151.104 59.0204 151.104 58.8536 151.104 58.6868C151.105 57.4469 151.19 56.2084 151.357 54.9799C152.122 49.4195 154.516 45.3728 156.781 41.7153C157.174 41.1135 157.334 40.3884 157.231 39.6765C156.971 38.4414 156.304 37.3296 155.337 36.5194C155.293 36.4789 155.24 36.4506 155.182 36.4373C155.124 36.424 155.063 36.4263 155.006 36.4438C154.949 36.4613 154.898 36.4935 154.858 36.5372C154.817 36.5808 154.789 36.6343 154.775 36.6924C154.158 39.4973 149.358 46.7011 148.155 52.1379C144.657 48.3483 142.643 43.4216 142.483 38.2637C142.323 33.1059 144.028 28.0637 147.285 24.0642C147.717 23.5329 148.173 23.0201 148.655 22.532C149.562 21.6039 150.554 20.7622 151.616 20.0175C152.098 19.6715 152.603 19.3502 153.116 19.0475C156.392 17.1294 160.118 16.1185 163.913 16.1185C167.708 16.1185 171.435 17.1294 174.711 19.0475C174.86 18.3239 174.934 17.5869 174.933 16.8481C174.932 16.3957 174.903 15.9438 174.846 15.495C174.823 15.3173 174.753 15.1488 174.645 15.0058C174.537 14.8629 174.394 14.7505 174.229 14.6795C170.893 13.1697 167.267 12.409 163.606 12.4506C159.945 12.4922 156.337 13.3352 153.035 14.9205C152.715 15.0749 152.418 15.2417 152.079 15.4085C152.079 15.4085 150.981 15.3591 151.462 13.4747C152.247 10.5308 154.051 7.96182 156.552 6.22592C159.054 4.49002 162.089 3.70003 165.118 3.99684C168.146 4.29366 170.971 5.65797 173.089 7.84649C175.206 10.035 176.479 12.9055 176.679 15.946C176.679 16.2117 176.679 16.4773 176.679 16.7492C176.674 17.8491 176.497 18.9414 176.155 19.9866C175.957 20.5887 175.72 21.1769 175.445 21.7474C173.508 25.7632 169.583 29.4948 165.758 33.14L164.456 34.4868C164.315 34.6238 164.125 34.7004 163.929 34.7004C163.732 34.7004 163.543 34.6238 163.401 34.4868L161.988 33.1647C158.157 29.5195 154.232 25.7879 152.301 21.7721C151.487 22.3946 150.724 23.0804 150.018 23.8232C149.873 23.9776 149.782 24.1754 149.76 24.3863C149.738 24.5971 149.785 24.8095 149.895 24.9909C151.783 28.1603 154.529 31.0579 157.299 33.7578L159.52 35.8028C160.625 36.8469 163.969 40.1275 163.969 40.1275C164.586 40.7453 165.24 41.3631 165.869 41.981C169.991 45.9041 174.217 49.9323 175.963 54.3003C176.043 54.5315 176.043 54.7829 175.962 55.0139C175.881 55.2448 175.725 55.4418 175.519 55.573Z"/></g><defs><clipPath id="clip0_0_155"><path fill="#fff" d="M0 0H326V121H0z"/></clipPath></defs></svg>