<svg width="124" height="185" viewBox="0 0 124 185" fill="none" xmlns="http://www.w3.org/2000/svg"><g clip-path="url(#clip0_1_170)"><path d="M90.6782 137.378C89.2394 138.29 87.7767 139.138 86.2899 139.92C78.3487 144.022 69.4986 146.041 60.5665 145.789C51.6344 145.537 42.9118 143.023 35.2138 138.48C34.7706 141.388 34.7536 144.346 35.1634 147.26C35.2312 147.749 35.4237 148.213 35.7223 148.606C36.0209 149 36.4155 149.31 36.8684 149.507C44.5224 152.921 52.7887 154.746 61.1673 154.87C69.5459 154.993 77.8624 153.414 85.6137 150.227C88.4086 149.076 91.1138 147.719 93.7068 146.165C101.793 141.359 108.679 134.772 113.844 126.904C119.009 119.037 122.316 110.095 123.515 100.757C124.713 91.4193 123.772 81.9307 120.763 73.0112C117.753 64.0917 112.754 55.9756 106.145 49.2785C106.073 49.7035 105.994 50.1284 105.908 50.5462C105.428 52.9105 104.759 55.2324 103.908 57.4892C103.681 58.1019 103.614 58.7619 103.71 59.4079C103.807 60.0539 104.066 60.6648 104.462 61.184C112.017 71.3216 115.695 83.8345 114.826 96.4536C113.958 109.073 108.601 120.962 99.728 129.967C94.4621 117.571 83.1822 106.869 72.9598 97.1167L69.6938 93.998C69.5352 93.8442 69.4091 93.6601 69.323 93.4566C69.2369 93.2531 69.1925 93.0343 69.1925 92.8133C69.1925 92.5922 69.2369 92.3734 69.323 92.1699C69.4091 91.9664 69.5352 91.7822 69.6938 91.6285L72.9598 88.517C74.7151 86.8461 76.5063 85.1391 78.2904 83.4106C85.6425 76.2946 92.8363 68.6385 97.5051 60.2117C98.3275 58.7394 99.0718 57.2248 99.7352 55.6742C101.092 52.525 102.014 49.2054 102.476 45.807C102.672 44.3532 102.771 42.8878 102.771 41.4207C102.771 40.895 102.771 40.3764 102.735 39.8506C102.367 29.8832 98.3527 20.3988 91.4551 13.2019C91.0841 12.8163 90.7927 12.3613 90.5977 11.8629C90.4026 11.3644 90.3077 10.8323 90.3184 10.297C90.3291 9.76175 90.4452 9.23386 90.66 8.7436C90.8748 8.25334 91.1841 7.81034 91.5702 7.43997L96.7858 2.50637C96.9177 2.38403 97.0125 2.22692 97.0593 2.0531C97.1061 1.87928 97.1031 1.69578 97.0506 1.52361C96.998 1.35144 96.898 1.1976 96.7621 1.0797C96.6262 0.961803 96.4599 0.884634 96.2822 0.857044L91.3112 0.0575477C90.1788 -0.124269 89.0197 -0.0406766 87.925 0.301744C86.8304 0.644165 85.8299 1.23608 85.0023 2.03099L81.4053 5.50975C75.313 2.20907 68.4809 0.517678 61.5542 0.595263C54.6275 0.672849 47.8349 2.51685 41.8179 5.95317C35.8008 9.38948 30.758 14.3047 27.1656 20.2345C23.5732 26.1643 21.5498 32.9131 21.2865 39.8434C21.2162 41.8502 21.281 43.8594 21.4808 45.8574C20.2386 46.9378 19.0397 48.0637 17.8838 49.2353C12.0178 55.1757 7.41246 62.2427 4.34497 70.0112C1.27748 77.7797 -0.188798 86.0891 0.0343171 94.4396C0.257433 102.79 2.16534 111.009 5.64328 118.602C9.12121 126.196 14.0973 133.006 20.2722 138.624C20.629 138.951 20.9093 139.353 21.0933 139.801C21.2774 140.25 21.3605 140.733 21.3369 141.217C21.2865 142.247 21.2649 143.277 21.2578 144.335V144.897C21.2291 150.217 22.2761 155.488 24.3359 160.392C26.3956 165.296 29.4253 169.732 33.2427 173.433C38.9144 178.907 46.0399 182.632 53.7685 184.162C61.497 185.693 69.5022 184.964 76.8283 182.063C84.1545 179.162 90.4921 174.212 95.0845 167.803C99.677 161.394 102.33 153.797 102.728 145.92C99.9337 148.003 96.9799 149.862 93.8938 151.48C93.5345 151.666 93.2157 151.921 92.9563 152.231C92.6969 152.542 92.502 152.901 92.3831 153.288C90.4148 159.824 86.3986 165.553 80.9279 169.628C75.4573 173.703 68.8224 175.909 62.0036 175.918C46.2779 175.918 33.5664 165.28 30.8327 150.796C30.5399 149.253 30.3643 147.691 30.3076 146.122C30.3076 145.725 30.3076 145.322 30.3076 144.912C30.3036 141.823 30.5128 138.738 30.9335 135.678C32.8182 121.994 38.7459 111.91 44.3355 102.893C45.3144 101.407 45.709 99.6112 45.4434 97.8513C45.1269 95.6906 43.8823 93.0185 40.7746 90.0511C40.6675 89.9495 40.5353 89.8782 40.3916 89.8444C40.248 89.8106 40.0979 89.8155 39.9568 89.8587C39.8156 89.9019 39.6885 89.9818 39.5882 90.0903C39.488 90.1987 39.4183 90.3319 39.3862 90.4761C37.8755 97.4408 25.9337 115.245 22.9915 128.634C14.4082 119.282 9.47275 107.149 9.08706 94.4543C8.70138 81.7592 12.8912 69.3489 20.8909 59.4915C21.9555 58.1735 23.085 56.913 24.2648 55.703C26.5123 53.4156 28.9609 51.3353 31.5809 49.4874C32.7823 48.6375 34.0268 47.838 35.2929 47.0962C43.394 42.3469 52.6123 39.8435 62 39.8435C71.3877 39.8435 80.6061 42.3469 88.7071 47.0962C89.2857 44.2087 89.3998 41.2473 89.0452 38.3237C88.9894 37.8855 88.8217 37.469 88.5583 37.1145C88.295 36.76 87.9449 36.4795 87.5417 36.2999C79.2982 32.5642 70.3372 30.6824 61.2891 30.7869C52.2411 30.8914 43.3258 32.9797 35.1706 36.9049C34.3793 37.2866 33.5952 37.6899 32.8182 38.1077C32.8182 38.1077 30.099 37.978 31.3795 33.3325C33.3113 26.0439 37.7708 19.6814 43.9598 15.3837C50.1489 11.0861 57.6635 9.13381 65.1589 9.87627C72.6542 10.6187 79.6411 14.0075 84.869 19.436C90.0969 24.8646 93.2246 31.9786 93.6924 39.5049C93.7356 40.1627 93.7572 40.8254 93.7572 41.4928C93.7407 44.2092 93.3014 46.9065 92.4551 49.4874C91.9671 50.9663 91.3733 52.4081 90.6782 53.8016C85.8943 63.7265 76.2042 72.9455 66.7371 81.9485C65.6077 83.0216 64.4567 84.1092 63.3129 85.2183C62.9625 85.5517 62.4977 85.7376 62.0144 85.7376C61.5311 85.7376 61.0662 85.5517 60.7159 85.2183C59.5721 84.1164 58.4283 83.0216 57.2916 81.9485C47.8246 72.9455 38.1345 63.7265 33.3506 53.8016C31.3425 55.33 29.4589 57.0159 27.7178 58.8433C27.3584 59.2231 27.1329 59.7103 27.0757 60.2305C27.0186 60.7506 27.1329 61.2752 27.4013 61.7242C32.0845 69.5604 38.8682 76.7051 45.7311 83.3889C47.5152 85.1175 49.3281 86.8173 51.0618 88.4882C53.7882 91.0811 62.0468 99.1549 62.0468 99.1549C63.6006 100.667 65.1833 102.173 66.7371 103.656C76.9236 113.344 87.3762 123.29 91.6853 134.094C91.927 134.673 91.9586 135.318 91.7747 135.918C91.5907 136.518 91.2028 137.034 90.6782 137.378Z" fill="#fff"/></g><defs><clipPath id="clip0_1_170"><path fill="#fff" d="M0 0H124V185H0z"/></clipPath></defs></svg>